<svg xmlns="http://www.w3.org/2000/svg" xmlns:xlink="http://www.w3.org/1999/xlink" viewBox="0 0 723.29 268"><defs><style>.cls-1{fill:url(#linear-gradient);}.cls-2{fill:url(#linear-gradient-2);}.cls-3{fill:url(#linear-gradient-3);}.cls-4{fill:url(#linear-gradient-4);}.cls-5{fill:url(#linear-gradient-5);}</style><linearGradient id="linear-gradient" x1="290.37" y1="-17.05" x2="15.57" y2="226.45" gradientUnits="userSpaceOnUse"><stop offset="0" stop-color="#c13bec"/><stop offset="1" stop-color="#5f50e6"/></linearGradient><linearGradient id="linear-gradient-2" x1="789.96" y1="-43.92" x2="323.68" y2="167.83" xlink:href="#linear-gradient"/><linearGradient id="linear-gradient-3" x1="801.74" y1="-17.99" x2="335.45" y2="193.76" xlink:href="#linear-gradient"/><linearGradient id="linear-gradient-4" x1="821.49" y1="25.51" x2="355.21" y2="237.27" xlink:href="#linear-gradient"/><linearGradient id="linear-gradient-5" x1="832.75" y1="50.3" x2="366.47" y2="262.06" xlink:href="#linear-gradient"/></defs><g id="Layer_2" data-name="Layer 2"><g id="Layer_1-2" data-name="Layer 1"><polygon class="cls-1" points="0 45.89 48.61 134.85 0.15 222.28 48.08 222.28 70.97 179.3 119.65 268 168.34 178.51 192.15 222.13 239.47 222.41 191.85 134.82 239.47 46.47 192.15 46.47 168.65 91.09 119.73 0 96 44.81 145.45 134.52 119.65 181.82 47.16 44.75 0 45.89"/><path class="cls-2" d="M408,198.15h33.51l-43.52-129H356.43l-43.53,129h33.51l8.49-27.08h44.55Zm-45.63-50.76,14.32-45.73h1L392,147.39Z"/><path class="cls-3" d="M460.19,69.16,489,163.64h1.07L519,69.16h34.89l-43.52,129H468.82l-43.53-129Z"/><path class="cls-4" d="M599,69.16v129H567.77v-129Z"/><path class="cls-5" d="M614.25,94.48V69.16h109V94.48H684.17V198.15H653.43V94.48Z"/></g></g></svg>