<svg height="384pt" viewBox="-64 0 384 384" width="384pt" xmlns="http://www.w3.org/2000/svg"><path d="m184 144c39.703125 0 72-32.304688 72-72v-72h-72c-22.609375 0-42.792969 10.496094-56 26.847656-13.207031-16.351562-33.390625-26.847656-56-26.847656h-72v72c0 39.703125 32.304688 72 72 72h40v80h-32c-44.113281 0-80 35.886719-80 80s35.886719 80 80 80h96c44.113281 0 80-35.886719 80-80s-35.886719-80-80-80h-32v-80zm-40-72c0-22.054688 17.945312-40 40-40h40v40c0 22.054688-17.945312 40-40 40h-40zm-32 40h-40c-22.054688 0-40-17.945312-40-40v-40h40c22.054688 0 40 17.945312 40 40zm64 144c18.367188 0 34.34375 10.382812 42.40625 25.574219l-68.269531 8.539062 3.96875 31.75 68.972656-8.625c-4.308594 22.058594-23.773437 38.761719-47.078125 38.761719h-96c-21.296875 0-39.367188-13.945312-45.632812-33.175781l71.488281-8.9375-3.96875-31.75-66.527344 8.3125c7.03125-17.800781 24.367187-30.449219 44.640625-30.449219zm0 0"/></svg>